<mxfile host="app.diagrams.net" modified="2023-05-08T12:52:51.436Z" agent="Mozilla/5.0 (X11; Linux x86_64) AppleWebKit/537.36 (KHTML, like Gecko) Chrome/103.0.0.0 Safari/537.36" version="21.2.9" etag="Gqz2z5LCY2OlvdHnDnvH" type="github">
  <diagram name="Page-1" id="mLZ4j7zR7Z7BT_BTE5Zz">
    <mxGraphModel>
      <root>
        <mxCell id="0" />
        <mxCell id="1" parent="0" />
      </root>
    </mxGraphModel>
  </diagram>
</mxfile>
